<?xml version="1.0" encoding="UTF-8" standalone="no"?>
<!DOCTYPE svg PUBLIC "-//W3C//DTD SVG 1.1//EN" "http://www.w3.org/Graphics/SVG/1.1/DTD/svg11.dtd">
<svg width="100%" height="100%" viewBox="0 0 500 500" version="1.1" xmlns="http://www.w3.org/2000/svg" xmlns:xlink="http://www.w3.org/1999/xlink" xml:space="preserve" xmlns:serif="http://www.serif.com/" style="fill-rule:evenodd;clip-rule:evenodd;stroke-linejoin:round;stroke-miterlimit:2;">
    <g id="Layer_27">
        <rect x="0" y="-0.622" width="500" height="500" style="fill:white;"/>
        <g transform="matrix(1,0,0,1,-1.77636e-15,0.622)">
            <path d="M500,299.427L500,199.329L400.024,199.329L400.024,-0.622L99.976,-0.622L99.976,99.354L0,99.354L0,199.329L99.976,199.329L99.976,499.378L500,499.378L500,399.402L400.024,399.402L400.024,299.427L500,299.427Z" style="fill:white;fill-rule:nonzero;"/>
            <path d="M500,299.427L500,199.329L400.024,199.329L400.024,-0.622L99.976,-0.622L99.976,99.354L0,99.354L0,199.329L99.976,199.329L99.976,499.378L500,499.378L500,399.402L400.024,399.402L400.024,299.427L500,299.427ZM490,289.427L390.024,289.427L390.024,409.402L490,409.402C490,409.402 490,489.378 490,489.378C490,489.378 170.942,489.378 109.976,489.378C109.976,489.378 109.976,399.402 109.976,399.402L109.976,189.329L10,189.329C10,189.329 10,109.354 10,109.354C10,109.354 109.976,109.354 109.976,109.354L109.976,9.378C109.976,9.378 390.024,9.378 390.024,9.378L390.024,209.329L490,209.329L490,289.427Z"/>
        </g>
        <g transform="matrix(1,0,0,1,-1.77636e-15,0.622)">
            <path d="M400.024,299.427L400.024,199.329L300.049,199.329L300.049,99.354L299.988,99.354L299.988,-0.622L199.951,-0.622L199.951,99.354L99.976,99.354L99.976,199.329L200.012,199.329L200.012,399.402L199.951,399.402L199.951,499.378L400.024,499.378L400.024,399.402L299.988,399.402L299.988,299.427L400.024,299.427Z" style="fill:white;fill-rule:nonzero;"/>
            <path d="M400.024,299.427L400.024,199.329L300.049,199.329L300.049,99.354L299.988,99.354L299.988,-0.622L199.951,-0.622L199.951,99.354L99.976,99.354L99.976,199.329L200.012,199.329L200.012,399.402L199.951,399.402L199.951,499.378L400.024,499.378L400.024,399.402L299.988,399.402L299.988,299.427L400.024,299.427ZM290.049,109.354L290.049,209.329L390.024,209.329L390.024,289.427L289.988,289.427L289.988,409.402L390.024,409.402C390.024,409.402 390.024,489.378 390.024,489.378C390.024,489.378 209.951,489.378 209.951,489.378L209.951,409.402L210.012,409.402L210.012,189.329L109.976,189.329C109.976,189.329 109.976,109.354 109.976,109.354C109.976,109.354 209.951,109.354 209.951,109.354L209.951,9.378C209.951,9.378 289.988,9.378 289.988,9.378C289.988,9.378 289.988,109.354 289.988,109.354L290.049,109.354Z"/>
        </g>
    </g>
</svg>
