<?xml version="1.0" encoding="utf-8"?>
<!-- Generator: Adobe Illustrator 16.0.0, SVG Export Plug-In . SVG Version: 6.00 Build 0)  -->
<!DOCTYPE svg PUBLIC "-//W3C//DTD SVG 1.1//EN" "http://www.w3.org/Graphics/SVG/1.1/DTD/svg11.dtd">
<svg version="1.1" xmlns="http://www.w3.org/2000/svg" xmlns:xlink="http://www.w3.org/1999/xlink" x="0px" y="0px" width="500px"
	 height="500px" viewBox="0 0 500 500" enable-background="new 0 0 500 500" xml:space="preserve">
<g id="Layer_24">
	<rect x="-0.012" y="-0.622" fill="#FFFFFF" width="500" height="500"/>
	<polygon fill="#FFFFFF" stroke="#000000" stroke-width="10" stroke-miterlimit="10" points="400.013,99.354 400.013,49.427 
		449.939,49.427 449.939,-0.622 50.037,-0.622 50.037,49.427 99.964,49.427 99.964,99.354 50.037,99.354 50.037,149.402 
		99.964,149.402 99.964,199.329 50.037,199.329 50.037,249.378 50.037,299.427 99.964,299.427 99.964,349.354 50.037,349.354 
		50.037,399.402 99.964,399.402 99.964,449.329 50.037,449.329 50.037,499.378 400.013,499.378 400.013,449.329 449.985,449.329 
		449.985,399.402 449.985,349.354 400.013,349.354 400.013,299.427 449.939,299.427 449.939,249.378 400.013,249.378 
		400.013,199.329 449.985,199.329 449.985,149.402 449.985,99.354 	"/>
	<polygon fill="#FFFFFF" stroke="#000000" stroke-width="10" stroke-miterlimit="10" points="400.013,49.427 400.013,-0.622 
		99.964,-0.622 99.964,49.427 150.013,49.427 150.013,99.354 150.013,149.402 150.013,199.329 99.964,199.329 99.964,249.378 
		99.964,299.427 150.013,299.427 150.013,349.354 99.964,349.354 99.964,399.402 150.013,399.402 150.013,449.329 99.964,449.329 
		99.964,499.378 349.964,499.378 349.964,449.329 400.013,449.329 400.013,399.402 349.964,399.402 349.964,349.354 
		349.964,299.427 400.013,299.427 400.013,249.378 349.964,249.378 349.964,199.329 400.013,199.329 400.013,149.402 
		400.013,99.354 349.964,99.354 349.964,49.427 	"/>
	<polygon fill="#FFFFFF" stroke="#000000" stroke-width="10" stroke-miterlimit="10" points="349.964,49.427 349.964,-0.622 
		149.988,-0.622 150.013,49.427 199.939,49.427 199.939,99.354 199.939,149.402 199.939,199.329 150.013,199.329 150.013,249.378 
		150.013,299.427 199.939,299.427 199.939,349.354 150.013,349.354 150.013,399.402 199.939,399.402 199.939,449.329 
		150.013,449.329 150.013,499.378 300.037,499.378 300.037,449.329 349.964,449.329 349.964,399.402 300.037,399.402 
		300.037,349.354 300.037,299.427 349.964,299.427 349.964,249.378 300.037,249.378 300.037,199.329 349.964,199.329 
		349.964,149.402 349.964,99.354 300.037,99.354 300.037,49.427 	"/>
</g>
</svg>
