<?xml version="1.0" encoding="UTF-8" standalone="no"?>
<svg
   xmlns:dc="http://purl.org/dc/elements/1.1/"
   xmlns:cc="http://creativecommons.org/ns#"
   xmlns:rdf="http://www.w3.org/1999/02/22-rdf-syntax-ns#"
   xmlns:svg="http://www.w3.org/2000/svg"
   xmlns="http://www.w3.org/2000/svg"
   xmlns:sodipodi="http://sodipodi.sourceforge.net/DTD/sodipodi-0.dtd"
   xmlns:inkscape="http://www.inkscape.org/namespaces/inkscape"
   height="1500.6963"
   viewBox="0 0 1500.6963 1500.6963"
   width="1500.6963"
   version="1.1"
   id="svg209"
   sodipodi:docname="icon-mail.svg"
   inkscape:version="0.92.4 5da689c313, 2019-01-14">
  <metadata
     id="metadata215">
    <rdf:RDF>
      <cc:Work
         rdf:about="">
        <dc:format>image/svg+xml</dc:format>
        <dc:type
           rdf:resource="http://purl.org/dc/dcmitype/StillImage" />
        <dc:title></dc:title>
      </cc:Work>
    </rdf:RDF>
  </metadata>
  <defs
     id="defs213" />
  <sodipodi:namedview
     pagecolor="#ffffff"
     bordercolor="#666666"
     borderopacity="1"
     objecttolerance="10"
     gridtolerance="10"
     guidetolerance="10"
     inkscape:pageopacity="0"
     inkscape:pageshadow="2"
     inkscape:window-width="3200"
     inkscape:window-height="1800"
     id="namedview211"
     showgrid="false"
     inkscape:zoom="0.7449875"
     inkscape:cx="1392.4265"
     inkscape:cy="990.93124"
     inkscape:window-x="0"
     inkscape:window-y="0"
     inkscape:window-maximized="0"
     inkscape:current-layer="svg209" />
  <circle
     style="fill:#000000;fill-opacity:1;stroke-width:0;stroke-miterlimit:4;stroke-dasharray:none"
     id="path388"
     cx="750.34814"
     cy="750.34814"
     r="750.34814" />
  <path
     d="M 1147.0047,642.55844 V 997.688 c 0,19.6797 -7.0073,36.5268 -21.0216,50.5411 -14.0141,14.0142 -30.8613,21.0215 -50.5411,21.0215 H 417.06591 c -19.67973,0 -36.52691,-7.0073 -50.5411,-21.0215 -14.01421,-14.0143 -21.02153,-30.8614 -21.02153,-50.5411 V 642.55844 c 13.11966,14.61085 28.17778,27.58157 45.17391,38.91218 107.94014,73.35169 182.03743,124.78732 222.2914,154.3069 16.99612,12.52346 30.78669,22.28863 41.37214,29.29596 10.58545,7.00732 24.67435,14.16358 42.26668,21.46878 17.59233,7.3052 33.99224,10.95803 49.1993,10.95803 h 0.44727 0.44726 c 15.20706,0 31.607,-3.65283 49.19933,-10.95803 17.59233,-7.3052 31.68123,-14.46146 42.26668,-21.46878 10.58545,-7.00733 24.37601,-16.7725 41.37214,-29.29596 50.69004,-36.67585 124.93621,-88.11148 222.73861,-154.3069 16.9961,-11.62894 31.9049,-24.59965 44.7267,-38.91218 z m 0,-131.49632 c 0,23.55618 -7.3052,46.06844 -21.9161,67.53722 -14.6108,21.46879 -32.7994,39.80671 -54.5665,55.01377 -112.11487,77.82436 -181.88844,126.27806 -209.32063,145.36158 -2.98192,2.08739 -9.3179,6.63431 -19.00883,13.64163 -9.69092,7.00732 -17.74171,12.67239 -24.15238,16.99612 -6.41068,4.32373 -14.16358,9.16897 -23.25786,14.53615 -9.09426,5.3672 -17.66702,9.3926 -25.71781,12.0762 -8.05082,2.6836 -15.50541,4.0254 -22.36335,4.0254 h -0.44726 -0.44727 c -6.85793,0 -14.31253,-1.3418 -22.36332,-4.0254 -8.0508,-2.6836 -16.62355,-6.709 -25.71782,-12.0762 -9.09427,-5.36718 -16.84718,-10.21242 -23.25785,-14.53615 -6.41067,-4.32373 -14.46147,-9.9888 -24.15238,-16.99612 -9.69093,-7.00732 -16.02691,-11.55424 -19.00883,-13.64163 -27.13431,-19.08352 -66.19542,-46.29207 -117.18379,-81.62612 -50.98837,-35.33404 -81.55143,-56.57919 -91.68962,-63.73546 -18.48686,-12.52345 -35.93025,-29.74321 -52.33016,-51.65926 -16.39993,-21.91606 -24.59966,-42.26669 -24.59966,-61.05188 0,-23.25784 6.18703,-42.63923 18.56156,-58.14463 12.37452,-15.50537 30.04154,-23.25784 53.00107,-23.25784 H 1075.442 c 19.3815,0 36.154,7.00732 50.3175,21.02152 14.1636,14.01419 21.2452,30.86138 21.2452,50.5411 z"
     id="path76"
     inkscape:connector-curvature="0"
     style="fill:#ffffff;stroke-width:0.44726637" />
</svg>
