<?xml version="1.0" encoding="utf-8"?>
<!-- Generator: Adobe Illustrator 16.0.0, SVG Export Plug-In . SVG Version: 6.00 Build 0)  -->
<!DOCTYPE svg PUBLIC "-//W3C//DTD SVG 1.1//EN" "http://www.w3.org/Graphics/SVG/1.1/DTD/svg11.dtd">
<svg version="1.1" xmlns="http://www.w3.org/2000/svg" xmlns:xlink="http://www.w3.org/1999/xlink" x="0px" y="0px"
	 width="992.13px" height="992.13px" viewBox="0 0 992.13 992.13" enable-background="new 0 0 992.13 992.13" xml:space="preserve">
<g id="Layer_1">
	<circle fill="#231F20" cx="496.065" cy="496.064" r="496.067"/>
	<title>Reddit icon</title>
</g>
<g id="Layer_2" display="none">
	<g display="inline" opacity="0.4">
		<path fill="#00A651" d="M496.063,103.11c217.022,0,392.953,175.931,392.953,392.953c0,217.022-175.931,392.953-392.953,392.953
			c-217.021,0-392.953-175.931-392.953-392.953C103.11,279.041,279.041,103.11,496.063,103.11 M496.063,93.11
			c-54.394,0-107.166,10.655-156.851,31.67c-47.984,20.296-91.077,49.349-128.08,86.352c-37.003,37.003-66.056,80.096-86.352,128.08
			c-21.015,49.685-31.67,102.457-31.67,156.851s10.655,107.166,31.67,156.851c20.296,47.984,49.349,91.077,86.352,128.08
			c37.003,37.004,80.096,66.057,128.081,86.353c49.684,21.015,102.456,31.67,156.85,31.67c54.394,0,107.166-10.655,156.851-31.67
			c47.984-20.296,91.077-49.349,128.08-86.353c37.004-37.003,66.057-80.096,86.353-128.08
			c21.015-49.685,31.67-102.457,31.67-156.851c0-54.394-10.655-107.166-31.67-156.85c-20.296-47.985-49.349-91.077-86.353-128.081
			c-37.003-37.003-80.096-66.056-128.08-86.352C603.229,103.765,550.456,93.11,496.063,93.11L496.063,93.11z"/>
	</g>
</g>
<g id="Layer_4">
	<path display="none" fill="#FFFFFF" d="M792.9,336.482c-20.846,9.163-43.104,15.404-66.542,18.255
		c23.885-14.392,42.257-37.075,50.948-64.139c-22.4,13.072-47.226,22.589-73.654,27.888c-21.104-22.589-51.183-36.721-84.583-36.721
		c-63.997,0-115.887,51.89-115.887,115.817c0,9.186,1.06,18.019,2.991,26.474c-96.337-4.546-181.721-50.806-238.864-120.739
		c-10.057,17.006-15.687,36.769-15.687,58.297c0,40.278,20.492,75.679,51.537,96.479c-19.008-0.612-36.886-5.842-52.479-14.509
		v1.437c0,56.177,39.877,103.026,92.945,113.696c-9.729,2.615-19.998,4.028-30.526,4.028c-7.396,0-14.486-0.706-21.575-2.025
		c14.862,46.001,57.589,79.543,108.443,80.485c-39.571,31.067-89.718,49.581-143.729,49.581c-9.186,0-18.348-0.542-27.558-1.578
		c51.561,32.834,112.307,52.031,178,52.031c213.26,0,329.736-176.563,329.736-329.43c0-4.923,0-9.893-0.354-14.839
		c22.635-16.229,42.397-36.744,57.943-60.016L792.9,336.482L792.9,336.482z"/>
	<g>
		<path fill="#FFFFFF" d="M494.201,359.782c-75.306,0-136.28,61.041-136.28,136.28c0,75.306,61.041,136.28,136.28,136.28
			c75.306,0,136.28-61.041,136.28-136.28C630.481,420.757,569.44,359.782,494.201,359.782z M494.201,584.527
			c-48.877,0-88.465-39.588-88.465-88.465s39.588-88.465,88.465-88.465s88.465,39.588,88.465,88.465
			S543.078,584.527,494.201,584.527z"/>
		<path fill="#FFFFFF" d="M635.878,322.583c-17.561,0-31.848,14.265-31.848,31.826c0,17.56,14.265,31.848,31.848,31.848
			c17.56,0,31.847-14.266,31.847-31.848C667.725,336.848,653.416,322.561,635.878,322.583z"/>
		<path fill="#FFFFFF" d="M758.003,386.653c-1.327-28.242-5.794-47.527-12.341-64.424c-6.768-17.45-15.879-32.268-30.608-47.019
			c-14.752-14.751-29.525-23.863-47.02-30.609c-16.919-6.569-36.183-11.036-64.425-12.341c-28.309-1.327-37.31-1.592-109.408-1.592
			c-72.099,0-81.1,0.332-109.409,1.592c-28.265,1.327-47.506,5.772-64.425,12.341c-17.45,6.768-32.268,15.857-47.019,30.609
			c-14.752,14.751-23.863,29.547-30.609,47.019c-6.569,16.919-11.036,36.16-12.341,64.424c-1.327,28.309-1.592,37.311-1.592,109.409
			s0.332,81.1,1.592,109.409c1.327,28.242,5.772,47.506,12.341,64.425c6.767,17.427,15.857,32.267,30.609,47.019
			c14.751,14.729,29.547,23.863,47.019,30.608c16.941,6.547,36.182,11.036,64.425,12.342c28.309,1.327,37.31,1.592,109.409,1.592
			c72.099,0,81.1-0.331,109.408-1.592c28.242-1.327,47.506-5.795,64.425-12.342c17.428-6.767,32.268-15.879,47.02-30.608
			c14.729-14.752,23.863-29.525,30.608-47.019c6.547-16.92,11.036-36.183,12.341-64.425c1.327-28.31,1.593-37.311,1.593-109.409
			S759.264,414.962,758.003,386.653z M710.144,603.326c-1.349,25.876-5.662,39.92-9.312,49.253
			c-4.953,12.43-10.593,21.231-19.882,30.564c-9.267,9.267-18.224,15.018-30.521,19.816c-9.289,3.627-23.554,7.961-49.43,9.134
			c-28.176,1.261-36.47,1.548-107.462,1.548c-71.015,0-79.309-0.332-107.463-1.637c-25.898-1.349-40.163-5.661-49.452-9.311
			c-12.584-4.954-21.231-10.594-30.498-19.883c-9.311-9.267-15.26-18.224-19.905-30.521c-3.649-9.288-7.939-23.554-9.289-49.429
			c-0.996-27.867-1.349-36.471-1.349-107.132c0-70.684,0.354-79.309,1.349-107.507c1.349-25.876,5.64-40.119,9.289-49.408
			c4.645-12.606,10.594-21.231,19.905-30.542c9.267-9.266,17.914-15.238,30.498-19.86c9.289-3.671,23.244-7.983,49.12-9.311
			c28.198-0.996,36.492-1.327,107.463-1.327l0.996,0.664c70.838,0,79.286,0.354,107.264,1.57c25.876,1.217,39.92,5.507,49.253,9.179
			c12.429,4.799,21.231,10.549,30.564,19.816c9.267,9.289,15.017,18.113,19.815,30.542c3.627,9.333,7.963,23.377,9.135,49.253
			c1.261,27.999,1.548,36.403,1.548,107.264S711.448,575.349,710.144,603.326z"/>
	</g>
</g>
</svg>
