<?xml version="1.0" encoding="UTF-8" standalone="no"?><!DOCTYPE svg PUBLIC "-//W3C//DTD SVG 1.1//EN" "http://www.w3.org/Graphics/SVG/1.1/DTD/svg11.dtd"><svg width="100%" height="100%" viewBox="0 0 1387 1387" version="1.1" xmlns="http://www.w3.org/2000/svg" xmlns:xlink="http://www.w3.org/1999/xlink" xml:space="preserve" xmlns:serif="http://www.serif.com/" style="fill-rule:evenodd;clip-rule:evenodd;stroke-linejoin:round;stroke-miterlimit:2;"><rect id="Favorit" x="0" y="0" width="1386.02" height="1386.02" style="fill:none;"/><path d="M232.002,577.197c-9.849,-16.756 -9.971,-37.503 -0.318,-54.373c9.652,-16.87 27.599,-27.278 47.035,-27.278l326.008,0c29.928,0 54.19,24.261 54.19,54.19l0,554.621c0,24.448 -16.37,45.869 -39.961,52.288c-23.59,6.42 -48.558,-3.751 -60.947,-24.828c-100.362,-170.741 -250.02,-425.347 -326.007,-554.62Z"/><path d="M1155,309.119c9.849,-16.756 9.97,-37.503 0.318,-54.373c-9.652,-16.869 -27.6,-27.278 -47.036,-27.278l-326.007,0c-29.928,0 -54.19,24.262 -54.19,54.19l0,554.621c0,24.448 16.37,45.869 39.961,52.289c23.59,6.42 48.558,-3.752 60.947,-24.828c100.362,-170.741 250.02,-425.348 326.007,-554.621Z"/></svg>