<?xml version="1.0" encoding="utf-8"?>
<!-- Generator: Adobe Illustrator 16.0.0, SVG Export Plug-In . SVG Version: 6.00 Build 0)  -->
<!DOCTYPE svg PUBLIC "-//W3C//DTD SVG 1.1//EN" "http://www.w3.org/Graphics/SVG/1.1/DTD/svg11.dtd">
<svg version="1.1" xmlns="http://www.w3.org/2000/svg" xmlns:xlink="http://www.w3.org/1999/xlink" x="0px" y="0px" width="500px"
	 height="500px" viewBox="0 0 500 500" enable-background="new 0 0 500 500" xml:space="preserve">
<g id="Layer_8">
			<rect y="-0.622" fill="#FFFFFF" width="500" height="500"/>
			<polygon fill="#FFFFFF" stroke="#000000" stroke-width="10" stroke-miterlimit="10" points="437.5,62.5 437.5,31.25 
				468.75,31.25 468.75,0 31.25,0 31.25,31.25 93,31.25 93,62.5 62.5,62.5 62.5,93.75 125,93.75 125,125 93.75,125 93.75,156.25 
				125,156.25 125,179.666 125,187.5 125,187.666 62.5,187.666 62.5,218.75 125,218.75 125,250 62.5,250 62.5,281.249 
				31.25,281.249 31.25,312.499 93,312.499 93,343.749 62.5,343.749 62.5,374.999 125,374.999 125,406.249 93.75,406.249 
				93.75,437.499 125,437.499 125,461.25 125,468.749 125,468.917 62.5,468.917 62.5,499.999 406.25,499.999 406.25,473 
				406.25,468.917 406.25,468.749 437.5,468.749 437.5,437.499 437.5,406.249 437.5,374.999 406.25,374.999 406.25,343.749 
				437.5,343.749 437.5,312.499 468.75,312.499 468.75,281.249 437.5,281.249 437.5,250 437.5,218.75 406.25,218.75 406.25,190.333 
				406.25,187.666 406.25,187.5 437.5,187.5 437.5,156.25 437.5,125 437.5,93.75 406.25,93.75 406.25,62.5 			"/>
			<polygon fill="#FFFFFF" stroke="#000000" stroke-width="10" stroke-miterlimit="10" points="406.25,62.5 406.25,31.25 
				437.5,31.25 437.5,0 62.5,0 62.5,31.25 125,31.25 125,62.5 93.75,62.5 93.75,93.75 156.25,93.75 156.25,125 125,125 125,156.25 
				156.25,156.25 156.25,187.5 93.75,187.5 93.75,218.75 156.75,218.75 156.75,250 93.75,250 93.75,281.249 62.5,281.249 
				62.5,312.499 125,312.499 125,343.749 93.75,343.749 93.75,374.999 156.25,374.999 156.25,406.249 125,406.249 125,437.499 
				156.25,437.499 156.25,468.749 93.75,468.749 93.75,499.999 375,499.999 375,468.749 406.25,468.749 406.25,437.499 
				406.25,406.249 406.25,374.999 375,374.999 375,343.749 406.25,343.749 406.25,312.499 437.5,312.499 437.5,281.249 
				406.25,281.249 406.25,250 406.25,218.75 375,218.75 375,187.5 406.25,187.5 406.25,156.25 406.25,125 406.25,93.75 375,93.75 
				375,62.5 			"/>
			<polygon fill="#FFFFFF" stroke="#000000" stroke-width="10" stroke-miterlimit="10" points="343.75,62.5 343.75,31.25 375,31.25 
				375,0 125,0 125,31.25 156.25,31.25 156.25,62.5 187.5,62.5 187.5,93.75 187.5,125 156.25,125 156.25,156.25 187.5,156.25 
				187.5,182.25 187.5,187.5 187.5,187.666 156.25,187.666 156.25,218.75 187.5,218.75 187.5,250 156.25,250 156.25,281.249 
				125,281.249 125,312.499 156.25,312.499 156.25,343.749 187.5,343.749 187.5,374.999 187.5,406.249 156.25,406.249 
				156.25,437.499 187.5,437.499 187.5,460.5 187.5,468.749 187.5,468.917 156.25,468.917 156.25,499.999 343.75,499.999 
				343.75,475.5 343.75,468.917 343.75,468.749 343.75,460.5 343.75,437.499 375,437.499 375,406.249 343.75,406.249 
				343.75,374.999 312.5,374.999 312.5,343.749 343.75,343.749 343.75,312.499 375,312.499 375,281.249 343.75,281.249 343.75,250 
				375,250 375,218.75 343.75,218.75 343.75,189.5 343.75,187.666 343.75,187.5 343.75,182.25 343.75,156.25 375,156.25 375,125 
				343.75,125 343.75,93.75 312.5,93.75 312.5,62.5 			"/>
		</g>
</svg>
