<?xml version="1.0" encoding="utf-8"?>
<!-- Generator: Adobe Illustrator 16.0.0, SVG Export Plug-In . SVG Version: 6.00 Build 0)  -->
<!DOCTYPE svg PUBLIC "-//W3C//DTD SVG 1.1//EN" "http://www.w3.org/Graphics/SVG/1.1/DTD/svg11.dtd">
<svg version="1.1" xmlns="http://www.w3.org/2000/svg" xmlns:xlink="http://www.w3.org/1999/xlink" x="0px" y="0px" width="500px"
	 height="500px" viewBox="0 0 500 500" enable-background="new 0 0 500 500" xml:space="preserve">
<g id="Layer_27">
	<rect y="-0.622" fill="#FFFFFF" width="500" height="500"/>
	<polygon fill="#FFFFFF" stroke="#000000" stroke-width="10" stroke-miterlimit="10" points="500,299.427 500,199.329 
		400.024,199.329 400.024,99.354 400.024,-0.622 99.976,-0.622 99.976,99.354 0,99.354 0,199.329 99.976,199.329 99.976,299.427 
		99.976,399.402 99.976,499.378 500,499.378 500,399.402 400.024,399.402 400.024,299.427 	"/>
	<polygon fill="#FFFFFF" stroke="#000000" stroke-width="10" stroke-miterlimit="10" points="400.024,299.427 400.024,199.329 
		300.049,199.329 300.049,99.354 299.988,99.354 299.988,-0.622 199.951,-0.622 199.951,99.354 99.976,99.354 99.976,199.329 
		200.012,199.329 200.012,299.427 200.012,399.402 199.951,399.402 199.951,499.378 400.024,499.378 400.024,399.402 
		299.988,399.402 299.988,299.427 	"/>
</g>
</svg>
