<?xml version="1.0" encoding="utf-8"?>
<!-- Generator: Adobe Illustrator 16.0.0, SVG Export Plug-In . SVG Version: 6.00 Build 0)  -->
<!DOCTYPE svg PUBLIC "-//W3C//DTD SVG 1.1//EN" "http://www.w3.org/Graphics/SVG/1.1/DTD/svg11.dtd">
<svg version="1.1" xmlns="http://www.w3.org/2000/svg" xmlns:xlink="http://www.w3.org/1999/xlink" x="0px" y="0px"
	 width="992.13px" height="992.13px" viewBox="0 0 992.13 992.13" enable-background="new 0 0 992.13 992.13" xml:space="preserve">
<g id="Layer_1">
	<circle fill="#231F20" cx="496.065" cy="496.064" r="496.067"/>
</g>
<g id="Layer_2" display="none">
	<g display="inline" opacity="0.4">
		<path fill="#00A651" d="M496.063,103.11c217.022,0,392.953,175.931,392.953,392.953c0,217.022-175.931,392.953-392.953,392.953
			c-217.021,0-392.953-175.931-392.953-392.953C103.11,279.041,279.041,103.11,496.063,103.11 M496.063,93.11
			c-54.394,0-107.166,10.655-156.851,31.67c-47.984,20.296-91.077,49.349-128.08,86.352c-37.003,37.003-66.056,80.096-86.352,128.08
			c-21.015,49.685-31.67,102.457-31.67,156.851s10.655,107.166,31.67,156.851c20.296,47.984,49.349,91.077,86.352,128.08
			c37.003,37.004,80.096,66.057,128.081,86.353c49.684,21.015,102.456,31.67,156.85,31.67c54.394,0,107.166-10.655,156.851-31.67
			c47.984-20.296,91.077-49.349,128.08-86.353c37.004-37.003,66.057-80.096,86.353-128.08
			c21.015-49.685,31.67-102.457,31.67-156.851c0-54.394-10.655-107.166-31.67-156.85c-20.296-47.985-49.349-91.077-86.353-128.081
			c-37.003-37.003-80.096-66.056-128.08-86.352C603.229,103.765,550.456,93.11,496.063,93.11L496.063,93.11z"/>
	</g>
</g>
<g id="Layer_4">
	<path fill="#FFFFFF" d="M733.971,314.105l-80.318,379.34c-5.563,26.92-21.804,33.373-44.497,20.914l-122.367-90.553l-59.182,57.18
		c-6.675,6.674-12.237,12.459-24.474,12.459c-16.02,0-13.35-6.006-18.689-21.137L342.171,534.59l-121.255-37.823
		c-26.254-7.787-26.476-25.809,5.785-38.935l473.006-182.439c21.581-9.567,42.272,5.339,34.041,38.49L733.971,314.105z"/>
</g>
</svg>
