<?xml version="1.0" encoding="UTF-8" standalone="no"?>
<svg
   xmlns:dc="http://purl.org/dc/elements/1.1/"
   xmlns:cc="http://creativecommons.org/ns#"
   xmlns:rdf="http://www.w3.org/1999/02/22-rdf-syntax-ns#"
   xmlns:svg="http://www.w3.org/2000/svg"
   xmlns="http://www.w3.org/2000/svg"
   xmlns:sodipodi="http://sodipodi.sourceforge.net/DTD/sodipodi-0.dtd"
   xmlns:inkscape="http://www.inkscape.org/namespaces/inkscape"
   height="1500.6963"
   viewBox="0 0 1500.6963 1500.6963"
   width="1500.6963"
   version="1.1"
   id="svg209"
   sodipodi:docname="icon-telegram.svg"
   inkscape:version="0.92.4 5da689c313, 2019-01-14">
  <metadata
     id="metadata215">
    <rdf:RDF>
      <cc:Work
         rdf:about="">
        <dc:format>image/svg+xml</dc:format>
        <dc:type
           rdf:resource="http://purl.org/dc/dcmitype/StillImage" />
        <dc:title></dc:title>
      </cc:Work>
    </rdf:RDF>
  </metadata>
  <defs
     id="defs213" />
  <sodipodi:namedview
     pagecolor="#ffffff"
     bordercolor="#666666"
     borderopacity="1"
     objecttolerance="10"
     gridtolerance="10"
     guidetolerance="10"
     inkscape:pageopacity="0"
     inkscape:pageshadow="2"
     inkscape:window-width="3200"
     inkscape:window-height="1800"
     id="namedview211"
     showgrid="false"
     inkscape:zoom="0.7449875"
     inkscape:cx="1392.4265"
     inkscape:cy="990.93124"
     inkscape:window-x="0"
     inkscape:window-y="0"
     inkscape:window-maximized="0"
     inkscape:current-layer="svg209" />
  <circle
     style="fill:#000000;fill-opacity:1;stroke-width:0;stroke-miterlimit:4;stroke-dasharray:none"
     id="path388"
     cx="750.34814"
     cy="750.34814"
     r="750.34814" />
  <path
     inkscape:connector-curvature="0"
     d="m 1051.0507,395.75677 q 13.4724,9.79804 11.0228,26.12812 L 957.56104,1048.9598 q -2.04119,11.8393 -13.06401,18.3713 -5.7155,3.266 -12.65584,3.266 -4.49073,0 -9.79802,-2.0413 L 737.10508,993.02922 638.30813,1113.4635 q -7.34853,9.3899 -20.00434,9.3899 -5.30726,0 -8.98154,-1.633 -7.75678,-2.8579 -12.45168,-9.594 -4.6949,-6.7362 -4.6949,-14.9012 V 954.24525 L 944.90531,521.90659 508.48405,899.53955 347.22458,833.40275 q -15.10532,-5.71556 -16.33008,-22.45386 -0.8165,-16.33008 13.06406,-24.08686 L 1023.2896,394.94027 q 6.1237,-3.67427 13.0641,-3.67427 8.1651,0 14.697,4.49077 z"
     id="path424"
     style="fill:#ffffff;stroke-width:0.40825182" />
</svg>
