<?xml version="1.0" encoding="utf-8"?>
<!-- Generator: Adobe Illustrator 16.0.0, SVG Export Plug-In . SVG Version: 6.00 Build 0)  -->
<!DOCTYPE svg PUBLIC "-//W3C//DTD SVG 1.1//EN" "http://www.w3.org/Graphics/SVG/1.1/DTD/svg11.dtd">
<svg version="1.1" xmlns="http://www.w3.org/2000/svg" xmlns:xlink="http://www.w3.org/1999/xlink" x="0px" y="0px"
	 width="992.13px" height="992.13px" viewBox="0 0 992.13 992.13" enable-background="new 0 0 992.13 992.13" xml:space="preserve">
<g id="Layer_1">
	<circle fill="#231F20" cx="496.065" cy="496.064" r="496.067"/>
	<title>Reddit icon</title>
</g>
<g id="Layer_2" display="none">
	<g display="inline" opacity="0.4">
		<path fill="#00A651" d="M496.063,103.11c217.022,0,392.953,175.931,392.953,392.953c0,217.022-175.931,392.953-392.953,392.953
			c-217.021,0-392.953-175.931-392.953-392.953C103.11,279.041,279.041,103.11,496.063,103.11 M496.063,93.11
			c-54.394,0-107.166,10.655-156.851,31.67c-47.984,20.296-91.077,49.349-128.08,86.352c-37.003,37.003-66.056,80.096-86.352,128.08
			c-21.015,49.685-31.67,102.457-31.67,156.851s10.655,107.166,31.67,156.851c20.296,47.984,49.349,91.077,86.352,128.08
			c37.003,37.004,80.096,66.057,128.081,86.353c49.684,21.015,102.456,31.67,156.85,31.67c54.394,0,107.166-10.655,156.851-31.67
			c47.984-20.296,91.077-49.349,128.08-86.353c37.004-37.003,66.057-80.096,86.353-128.08
			c21.015-49.685,31.67-102.457,31.67-156.851c0-54.394-10.655-107.166-31.67-156.85c-20.296-47.985-49.349-91.077-86.353-128.081
			c-37.003-37.003-80.096-66.056-128.08-86.352C603.229,103.765,550.456,93.11,496.063,93.11L496.063,93.11z"/>
	</g>
</g>
<g id="Layer_4">
	<g>
		<path fill="#FFFFFF" d="M760.442,423.684c0-45.776-16.249-83.165-42.979-112.518c4.192-10.587,18.345-53.219-4.194-110.98
			c0,0-35.118-11.251-114.789,42.98c-33.545-9.33-69.188-13.942-104.829-14.152c-35.643,0.21-71.284,4.823-104.83,14.152
			c-80.195-54.231-115.313-42.98-115.313-42.98c-22.538,57.761-8.386,100.393-3.668,110.98
			c-26.907,29.353-43.155,66.742-43.155,112.518c0,160.669,97.876,196.732,191,207.214c-11.985,10.484-22.782,28.969-26.557,56.084
			C367.155,697.711,306.389,716.23,269,652.109c0,0-22.119-40.256-64.226-43.189c0,0-40.918-0.525-2.936,25.473
			c0,0,27.57,12.928,46.65,61.326c0,0,24.6,81.559,141.241,56.258c0.174,34.943,0.524,61.326,0.524,71.285
			c0,11.111,57.669,41.652,103.957,41.652c45.904,0,102.698-31.012,102.698-41.967c0-13.629,0.523-58.705,0.523-114.824
			c0-39.277-13.628-64.994-28.304-77.572C662.426,620.242,760.442,584.771,760.442,423.684z"/>
	</g>
</g>
</svg>
