<?xml version="1.0" encoding="UTF-8" standalone="no"?>
<svg
   xmlns:dc="http://purl.org/dc/elements/1.1/"
   xmlns:cc="http://creativecommons.org/ns#"
   xmlns:rdf="http://www.w3.org/1999/02/22-rdf-syntax-ns#"
   xmlns:svg="http://www.w3.org/2000/svg"
   xmlns="http://www.w3.org/2000/svg"
   xmlns:sodipodi="http://sodipodi.sourceforge.net/DTD/sodipodi-0.dtd"
   xmlns:inkscape="http://www.inkscape.org/namespaces/inkscape"
   contentScriptType="text/ecmascript"
   contentStyleType="text/css"
   enable-background="new 0 0 2048 2048"
   height="2048px"
   id="Layer_1"
   preserveAspectRatio="xMidYMid meet"
   version="1.1"
   viewBox="0.0 0 1792.0 2048"
   width="1792.0px"
   xml:space="preserve"
   zoomAndPan="magnify"
   sodipodi:docname="icon-mail.svg"
   inkscape:version="0.92.4 5da689c313, 2019-01-14"><metadata
     id="metadata83"><rdf:RDF><cc:Work
         rdf:about=""><dc:format>image/svg+xml</dc:format><dc:type
           rdf:resource="http://purl.org/dc/dcmitype/StillImage" /><dc:title></dc:title></cc:Work></rdf:RDF></metadata><defs
     id="defs81" /><sodipodi:namedview
     pagecolor="#ffffff"
     bordercolor="#666666"
     borderopacity="1"
     objecttolerance="10"
     gridtolerance="10"
     guidetolerance="10"
     inkscape:pageopacity="0"
     inkscape:pageshadow="2"
     inkscape:window-width="3200"
     inkscape:window-height="1736"
     id="namedview79"
     showgrid="false"
     inkscape:zoom="0.35327148"
     inkscape:cx="2075.5482"
     inkscape:cy="726.76169"
     inkscape:window-x="0"
     inkscape:window-y="64"
     inkscape:window-maximized="1"
     inkscape:current-layer="Layer_1" /><path
     d="m 1952.5252,-0.07646471 c -307.7661,0.5338452 -615.5478,0.074718 -923.32,0.2266311 C 625.29071,0.25818949 221.37042,-0.05022651 -182.54051,0.33005519 -240.93567,1.9529058 -300.7305,24.26628 -339.12367,69.652389 c -51.07971,57.816801 -71.38359,137.517301 -67.73782,213.400591 4.90467,70.61966 40.66736,134.56818 82.33407,190.10485 48.47416,64.83445 105.98297,123.4717 173.03393,169.16779 186.504487,129.87172 373.63591,258.86696 559.98666,388.96868 76.71071,53.2318 152.52715,107.6538 228.63497,161.7318 51.86877,35.4595 104.72716,70.5503 162.69474,95.3184 46.99573,19.5305 100.26858,27.8419 149.96697,13.8614 68.62985,-17.4848 127.86615,-58.434 186.49675,-96.4368 75.3181,-51.9154 148.5531,-106.7943 224.36,-158.0153 202.4201,-140.94098 405.5338,-280.90828 607.5577,-422.40422 77.9436,-58.61891 145.5577,-132.66376 190.6566,-219.52514 33.7073,-68.11459 49.7069,-147.18701 34.5774,-222.42533 -17.33,-75.41667 -75.1994,-138.93164 -146.3967,-167.771617 -30.0129,-11.6172986 -62.4408,-16.16199861 -94.5164,-15.70395771 z M -407.2235,655.83302 c 0.2114,390.58708 -0.42868,781.18278 0.3309,1171.76448 2.55464,62.9701 33.56956,123.1054 80.91531,164.2228 43.47196,39.0371 102.01718,60.8739 160.52593,58.5562 191.889877,0.4517 383.78525,0.021 575.67753,0.1685 522.00151,-0.098 1044.01133,0.368 1566.00763,-0.3073 62.9796,-2.5573 123.1306,-33.563 164.2539,-80.9209 39.037,-43.4718 60.8739,-102.0173 58.5562,-160.526 0.4432,-186.8095 0.047,-373.6245 0.1865,-560.4363 0,-200.0205 0,-400.04098 0,-600.06142 -55.5422,64.80518 -123.1156,117.81806 -194.6174,163.8849 -254.6782,172.879 -508.9083,346.51052 -757.6172,527.91732 -45.1273,32.5362 -92.0506,62.8926 -142.787,86.0042 -62.348,29.1186 -128.44496,55.2115 -198.05783,56.5981 -76.12316,3.274 -149.97679,-24.2073 -217.82346,-56.4561 -54.29887,-24.4877 -104.04494,-57.3593 -151.97777,-92.4383 C 413.90028,1244.6855 290.69618,1156.6205 165.94409,1070.7504 24.770256,973.089 -117.08299,876.41365 -258.84658,779.61485 c -55.13817,-36.93763 -104.81003,-81.41256 -148.37692,-131.3953 0,2.53783 0,5.07565 0,7.61347 z"
     id="path76"
     inkscape:connector-curvature="0"
     style="stroke-width:1.44802988" /></svg>