<?xml version="1.0" encoding="UTF-8" standalone="no"?>
<svg
   xmlns:dc="http://purl.org/dc/elements/1.1/"
   xmlns:cc="http://creativecommons.org/ns#"
   xmlns:rdf="http://www.w3.org/1999/02/22-rdf-syntax-ns#"
   xmlns:svg="http://www.w3.org/2000/svg"
   xmlns="http://www.w3.org/2000/svg"
   xmlns:sodipodi="http://sodipodi.sourceforge.net/DTD/sodipodi-0.dtd"
   xmlns:inkscape="http://www.inkscape.org/namespaces/inkscape"
   height="1792"
   viewBox="0 0 1792 1792"
   width="1792"
   version="1.1"
   id="svg290"
   sodipodi:docname="icon-reddit.svg"
   inkscape:version="0.92.4 5da689c313, 2019-01-14">
  <metadata
     id="metadata296">
    <rdf:RDF>
      <cc:Work
         rdf:about="">
        <dc:format>image/svg+xml</dc:format>
        <dc:type
           rdf:resource="http://purl.org/dc/dcmitype/StillImage" />
        <dc:title></dc:title>
      </cc:Work>
    </rdf:RDF>
  </metadata>
  <defs
     id="defs294" />
  <sodipodi:namedview
     pagecolor="#ffffff"
     bordercolor="#666666"
     borderopacity="1"
     objecttolerance="10"
     gridtolerance="10"
     guidetolerance="10"
     inkscape:pageopacity="0"
     inkscape:pageshadow="2"
     inkscape:window-width="3200"
     inkscape:window-height="1800"
     id="namedview292"
     showgrid="false"
     inkscape:zoom="0.84319196"
     inkscape:cx="896"
     inkscape:cy="990.87756"
     inkscape:window-x="0"
     inkscape:window-y="0"
     inkscape:window-maximized="0"
     inkscape:current-layer="svg290" />
  <path
     d="m 1095,1167 q 16,16 0,31 -62,62 -199,62 -137,0 -199,-62 -16,-15 0,-31 6,-6 15,-6 9,0 15,6 48,49 169,49 120,0 169,-49 6,-6 15,-6 9,0 15,6 z M 788,986 q 0,37 -26,63 -26,26 -63,26 -37,0 -63.5,-26 -26.5,-26 -26.5,-63 0,-38 26.5,-64 26.5,-26 63.5,-26 37,0 63,26.5 26,26.5 26,63.5 z m 395,0 q 0,37 -26.5,63 -26.5,26 -63.5,26 -37,0 -63,-26 -26,-26 -26,-63 0,-37 26,-63.5 26,-26.5 63,-26.5 37,0 63.5,26 26.5,26 26.5,64 z m 251,-120 q 0,-49 -35,-84 -35,-35 -85,-35 -50,0 -86,36 -130,-90 -311,-96 l 63,-283 200,45 q 0,37 26,63 26,26 63,26 37,0 63.5,-26.5 Q 1359,485 1359,448 1359,411 1332.5,384.5 1306,358 1269,358 q -54,0 -80,50 L 968,359 q -19,-5 -25,16 l -69,312 q -180,7 -309,97 -35,-37 -87,-37 -50,0 -85,35 -35,35 -35,84 0,35 18.5,64 18.5,29 49.5,44 -6,27 -6,56 0,142 140,243 140,101 337,101 198,0 338,-101 140,-101 140,-243 0,-32 -7,-57 30,-15 48,-43.5 18,-28.5 18,-63.5 z m 358,30 q 0,182 -71,348 -71,166 -191,286 -120,120 -286,191 -166,71 -348,71 -182,0 -348,-71 Q 382,1650 262,1530 142,1410 71,1244 0,1078 0,896 0,714 71,548 142,382 262,262 382,142 548,71 714,0 896,0 q 182,0 348,71 166,71 286,191 120,120 191,286 71,166 71,348 z"
     id="path288"
     inkscape:connector-curvature="0" />
</svg>
