<?xml version="1.0" encoding="utf-8"?>
<!-- Generator: Adobe Illustrator 16.0.0, SVG Export Plug-In . SVG Version: 6.00 Build 0)  -->
<!DOCTYPE svg PUBLIC "-//W3C//DTD SVG 1.1//EN" "http://www.w3.org/Graphics/SVG/1.1/DTD/svg11.dtd">
<svg version="1.1" xmlns="http://www.w3.org/2000/svg" xmlns:xlink="http://www.w3.org/1999/xlink" x="0px" y="0px"
	 width="992.13px" height="992.13px" viewBox="0 0 992.13 992.13" enable-background="new 0 0 992.13 992.13" xml:space="preserve">
<g id="Layer_1">
	<circle fill="#231F20" cx="496.065" cy="496.064" r="496.067"/>
	<title>Reddit icon</title>
</g>
<g id="Layer_2" display="none">
	<g display="inline" opacity="0.4">
		<path fill="#00A651" d="M496.063,103.11c217.022,0,392.953,175.931,392.953,392.953c0,217.022-175.931,392.953-392.953,392.953
			c-217.021,0-392.953-175.931-392.953-392.953C103.11,279.041,279.041,103.11,496.063,103.11 M496.063,93.11
			c-54.394,0-107.166,10.655-156.851,31.67c-47.984,20.296-91.077,49.349-128.08,86.352c-37.003,37.003-66.056,80.096-86.352,128.08
			c-21.015,49.685-31.67,102.457-31.67,156.851s10.655,107.166,31.67,156.851c20.296,47.984,49.349,91.077,86.352,128.08
			c37.003,37.004,80.096,66.057,128.081,86.353c49.684,21.015,102.456,31.67,156.85,31.67c54.394,0,107.166-10.655,156.851-31.67
			c47.984-20.296,91.077-49.349,128.08-86.353c37.004-37.003,66.057-80.096,86.353-128.08
			c21.015-49.685,31.67-102.457,31.67-156.851c0-54.394-10.655-107.166-31.67-156.85c-20.296-47.985-49.349-91.077-86.353-128.081
			c-37.003-37.003-80.096-66.056-128.08-86.352C603.229,103.765,550.456,93.11,496.063,93.11L496.063,93.11z"/>
	</g>
</g>
<g id="Layer_4">
	<path fill="#FFFFFF" d="M792.9,336.482c-20.846,9.163-43.104,15.404-66.542,18.255c23.885-14.392,42.257-37.075,50.948-64.139
		c-22.4,13.072-47.226,22.589-73.654,27.888c-21.104-22.589-51.183-36.721-84.583-36.721c-63.997,0-115.887,51.89-115.887,115.817
		c0,9.186,1.06,18.019,2.991,26.474c-96.337-4.546-181.721-50.806-238.864-120.739c-10.057,17.006-15.687,36.769-15.687,58.297
		c0,40.278,20.492,75.679,51.537,96.479c-19.008-0.612-36.886-5.842-52.479-14.509v1.437c0,56.177,39.877,103.026,92.945,113.696
		c-9.729,2.615-19.998,4.028-30.526,4.028c-7.396,0-14.486-0.706-21.575-2.025c14.862,46.001,57.589,79.543,108.443,80.485
		c-39.571,31.067-89.718,49.581-143.729,49.581c-9.186,0-18.348-0.542-27.558-1.578c51.561,32.834,112.307,52.031,178,52.031
		c213.26,0,329.736-176.563,329.736-329.43c0-4.923,0-9.893-0.354-14.839c22.635-16.229,42.397-36.744,57.943-60.016L792.9,336.482
		L792.9,336.482z"/>
</g>
</svg>
