<?xml version="1.0" encoding="utf-8"?>
<!-- Generator: Adobe Illustrator 16.0.0, SVG Export Plug-In . SVG Version: 6.00 Build 0)  -->
<!DOCTYPE svg PUBLIC "-//W3C//DTD SVG 1.1//EN" "http://www.w3.org/Graphics/SVG/1.1/DTD/svg11.dtd">
<svg version="1.1" xmlns="http://www.w3.org/2000/svg" xmlns:xlink="http://www.w3.org/1999/xlink" x="0px" y="0px"
	 width="992.13px" height="992.13px" viewBox="0 0 992.13 992.13" enable-background="new 0 0 992.13 992.13" xml:space="preserve">
<g id="Layer_1">
	<circle fill="#231F20" cx="496.065" cy="496.064" r="496.067"/>
	<title>Reddit icon</title>
</g>
<g id="Layer_2" display="none">
	<g display="inline" opacity="0.4">
		<path fill="#00A651" d="M496.063,103.11c217.022,0,392.953,175.931,392.953,392.953c0,217.022-175.931,392.953-392.953,392.953
			c-217.021,0-392.953-175.931-392.953-392.953C103.11,279.041,279.041,103.11,496.063,103.11 M496.063,93.11
			c-54.394,0-107.166,10.655-156.851,31.67c-47.984,20.296-91.077,49.349-128.08,86.352c-37.003,37.003-66.056,80.096-86.352,128.08
			c-21.015,49.685-31.67,102.457-31.67,156.851s10.655,107.166,31.67,156.851c20.296,47.984,49.349,91.077,86.352,128.08
			c37.003,37.004,80.096,66.057,128.081,86.353c49.684,21.015,102.456,31.67,156.85,31.67c54.394,0,107.166-10.655,156.851-31.67
			c47.984-20.296,91.077-49.349,128.08-86.353c37.004-37.003,66.057-80.096,86.353-128.08
			c21.015-49.685,31.67-102.457,31.67-156.851c0-54.394-10.655-107.166-31.67-156.85c-20.296-47.985-49.349-91.077-86.353-128.081
			c-37.003-37.003-80.096-66.056-128.08-86.352C603.229,103.765,550.456,93.11,496.063,93.11L496.063,93.11z"/>
	</g>
</g>
<g id="Layer_4">
	<g display="none">
		<path display="inline" fill="#FFFFFF" d="M846.041,451.004c0-43.898-35.75-79.444-79.647-79.444
			c-20.19,0-39.237,7.473-53.714,21.07c-52.658-34.199-122.9-56.146-200.554-59.224l42.986-131.193l112.851,26.724
			c0,35.928,29.361,65.348,65.348,65.348c35.985,0,65.376-29.362,65.376-65.464c0-36.044-29.36-65.466-65.376-65.466
			c-27.166,0-50.432,16.469-60.512,39.854l-123.753-29.1c0-0.059-0.468-0.059-0.468-0.059l-11.838-2.784l-53.099,161.875
			c-80.732,1.494-154.021,23.471-208.41,58.372c-14.476-12.776-32.908-19.985-52.659-19.985c-43.898,0-79.854,35.664-79.854,79.502
			c0,27.898,14.477,53.362,37.714,67.81c-1.318,7.766-1.993,15.648-1.993,23.706c0,115.368,140.746,209.289,313.814,209.289
			l0.998-0.266c173.302,0,313.698-93.918,314.138-209.317c0-7.471-0.879-14.476-1.729-21.947
			C830.219,506.271,846.041,479.926,846.041,451.004z"/>
		<g display="inline">
			<path fill="#231F20" d="M588.022,623.867c-18.404,18.432-49.144,27.223-94.33,27.223c-45.216,0-76.131-9.202-94.594-27.633
				c-5.128-4.836-13.45-4.836-18.608,0c-5.068,5.128-5.068,13.422,0,18.519c23.62,23.677,60.63,35.077,113.202,35.077
				c52.659,0,89.054-10.607,112.762-34.284c4.835-5.276,4.835-13.627,0-18.901C601.208,619.062,592.855,619.062,588.022,623.867z"/>
			<path fill="#231F20" d="M436.402,504.277c0-26.725-21.654-49.143-48.379-49.143c-26.783,0-49.143,22.418-49.143,49.143
				c0,26.667,22.36,48.353,49.143,48.353C414.807,552.63,436.402,530.944,436.402,504.277z"/>
			<path fill="#231F20" d="M599.977,455.134c-26.784,0-49.171,22.418-49.171,49.143c0,26.667,22.387,48.353,49.171,48.353
				c26.785,0,48.382-21.686,48.382-48.353C648.358,477.552,626.701,455.134,599.977,455.134z"/>
		</g>
	</g>
	<path fill="#FFFFFF" d="M693.247,230.667H295.154c-36.646,0-66.349,29.703-66.349,66.349v398.092
		c0,36.625,29.703,66.349,66.349,66.349h398.093c36.624,0,66.349-29.724,66.349-66.349V297.017
		C759.596,260.37,729.871,230.667,693.247,230.667z M459.699,632.741c0,17.582-14.265,31.847-31.848,31.847h-98.196
		c-17.583,0-31.847-14.286-31.847-31.847V331.518c0-17.583,14.265-31.847,31.847-31.847h98.196
		c17.583,0,31.848,14.265,31.848,31.847V632.741L459.699,632.741z M690.593,500.044c0,17.56-14.265,31.847-31.847,31.847H560.55
		c-17.583,0-31.848-14.287-31.848-31.847V331.518c0-17.583,14.287-31.847,31.848-31.847h98.196
		c17.582,0,31.847,14.265,31.847,31.847V500.044L690.593,500.044z"/>
</g>
</svg>
